<?xml version="1.0" ?>
<!-- Uploaded to: SVG Repo, www.svgrepo.com, Generator: SVG Repo Mixer Tools -->
<svg fill="#000000" width="800px" height="800px" viewBox="0 0 128 128" id="Layer_1" version="1.1" xml:space="preserve" xmlns="http://www.w3.org/2000/svg" xmlns:xlink="http://www.w3.org/1999/xlink">
<g>
<path d="M115.475,65.68c-1.279-3.345-3.926-4.971-8.094-4.971H96.608v-3.583c0-3.5-2.847-6.347-6.347-6.347H17.785   c-3.5,0-6.347,2.847-6.347,6.347v21.099c0,23.035,18.741,41.776,41.776,41.776h1.619c16.059,0,30.022-9.114,37.012-22.436h8.662   c8.854,0,16.056-7.203,16.056-16.056v-5.014C116.563,72.397,116.563,68.527,115.475,65.68z M54.833,118h-1.619   c-21.933,0-39.776-17.843-39.776-39.776V57.125c0-2.397,1.95-4.347,4.347-4.347h72.477c2.397,0,4.347,1.95,4.347,4.347v4.552   c0,0.011-0.006,0.02-0.006,0.031s0.006,0.02,0.006,0.031v16.484c0,6.385-1.521,12.418-4.206,17.771   c-0.06,0.084-0.109,0.173-0.141,0.274C83.673,109.153,70.271,118,54.833,118z M114.563,81.508c0,7.75-6.306,14.056-14.056,14.056   h-7.682c2.422-5.286,3.784-11.156,3.784-17.34V62.708h10.773c3.331,0,5.251,1.137,6.226,3.686c0.957,2.502,0.956,6.193,0.956,10.1   V81.508z"/>
<path d="M31.668,44.169c0.188,0.313,0.519,0.485,0.858,0.485c0.175,0,0.353-0.046,0.514-0.143c0.474-0.284,0.627-0.898,0.343-1.372   L30.27,37.95c-1.756-2.926-1.296-6.656,1.117-9.069l1.034-1.034c2.086-2.086,3.083-5.076,2.665-7.997l-1.57-10.992   c-0.078-0.547-0.58-0.921-1.131-0.848c-0.546,0.078-0.926,0.584-0.848,1.131l1.57,10.992c0.329,2.301-0.456,4.656-2.1,6.299   l-1.034,1.034c-3.063,3.063-3.646,7.797-1.417,11.513L31.668,44.169z"/>
<path d="M51.161,44.169c0.188,0.313,0.519,0.485,0.858,0.485c0.175,0,0.353-0.046,0.514-0.143c0.474-0.284,0.627-0.898,0.343-1.372   l-3.113-5.189c-1.756-2.927-1.297-6.656,1.116-9.069l1.034-1.034c2.086-2.086,3.083-5.076,2.666-7.997l-1.57-10.992   c-0.078-0.547-0.583-0.921-1.131-0.848c-0.546,0.078-0.926,0.584-0.848,1.131l1.57,10.992c0.329,2.301-0.457,4.656-2.1,6.299   l-1.034,1.034c-3.063,3.063-3.646,7.797-1.417,11.513L51.161,44.169z"/>
<path d="M70.654,44.169c0.188,0.313,0.519,0.485,0.858,0.485c0.175,0,0.353-0.046,0.514-0.143c0.474-0.284,0.627-0.898,0.343-1.372   l-3.114-5.189c-1.756-2.926-1.296-6.656,1.117-9.069l1.034-1.034c2.086-2.086,3.083-5.076,2.666-7.997l-1.57-10.992   c-0.078-0.547-0.581-0.921-1.131-0.848c-0.546,0.078-0.926,0.584-0.848,1.131l1.57,10.992c0.329,2.301-0.457,4.656-2.1,6.299   l-1.034,1.034c-3.063,3.063-3.646,7.797-1.417,11.513L70.654,44.169z"/>
</g>
</svg>