<!DOCTYPE svg PUBLIC "-//W3C//DTD SVG 1.1//EN" "http://www.w3.org/Graphics/SVG/1.1/DTD/svg11.dtd">
<!-- Uploaded to: SVG Repo, www.svgrepo.com, Transformed by: SVG Repo Mixer Tools -->
<svg version="1.1" id="Layer_1" xmlns="http://www.w3.org/2000/svg" xmlns:xlink="http://www.w3.org/1999/xlink" viewBox="0 0 512 512" xml:space="preserve" width="150px" height="150px" fill="#000000">
<g id="SVGRepo_bgCarrier" stroke-width="0"/>
<g id="SVGRepo_tracerCarrier" stroke-linecap="round" stroke-linejoin="round"/>
<g id="SVGRepo_iconCarrier"> <rect x="92.39" y="7.837" style="fill:#FFE477;" width="327.22" height="496.327"/> <rect x="92.39" y="458.71" style="fill:#FFF5CC;" width="327.22" height="45.453"/> <rect x="256" y="458.71" style="fill:#EEBF00;" width="163.61" height="45.453"/> <rect x="92.39" y="7.837" style="fill:#FFF5CC;" width="327.22" height="67.02"/> <rect x="256" y="7.837" style="fill:#EEBF00;" width="163.61" height="67.02"/> <rect x="256" y="74.856" style="fill:#FFD442;" width="163.61" height="383.854"/> <ellipse style="fill:#A5001E;" cx="256" cy="255.99" rx="58.619" ry="95.096"/> <path style="fill:#830018;" d="M314.618,255.994c0-52.518-26.245-95.092-58.618-95.092v190.184 C288.374,351.086,314.618,308.511,314.618,255.994z"/> <polygon points="296.803,67.072 281.078,67.02 281.025,82.631 296.803,82.683 "/> <polygon points="265.456,67.072 249.731,67.02 249.678,82.631 265.456,82.683 "/> <polygon points="328.15,67.072 312.424,67.02 312.372,82.631 328.15,82.683 "/> <polygon points="390.844,67.072 375.118,67.02 375.066,82.631 390.844,82.683 "/> <polygon points="359.497,67.072 343.771,67.02 343.719,82.631 359.497,82.683 "/> <polygon points="140.069,67.072 124.343,67.02 124.291,82.631 140.069,82.683 "/> <polygon points="171.416,67.072 155.69,67.02 155.638,82.631 171.416,82.683 "/> <polygon points="202.762,67.072 187.037,67.02 186.984,82.631 202.762,82.683 "/> <polygon points="234.109,67.072 218.384,67.02 218.331,82.631 234.109,82.683 "/> <path d="M427.447,466.547V0H84.553v512h342.894v-30.302h-15.673v14.629H100.227v-29.78H427.447z M411.773,15.673v51.368 l-5.308-0.022l-0.052,15.611l5.36,0.022v368.221H100.227V82.655l8.494,0.028V67.072l-8.494-0.028v-51.37H411.773z"/> <path d="M207.879,327.347c12.552,20.362,29.642,31.576,48.121,31.576s35.568-11.214,48.12-31.576 c11.824-19.18,18.335-44.52,18.335-71.352c0-26.833-6.511-52.173-18.334-71.353c-12.552-20.362-29.642-31.576-48.121-31.576 s-35.568,11.214-48.121,31.576c-11.823,19.18-18.334,44.52-18.334,71.353C189.546,282.827,196.056,308.167,207.879,327.347z M290.778,192.866c10.319,16.741,16.003,39.161,16.003,63.128c0,23.967-5.683,46.386-16.003,63.128 c-7.618,12.358-16.981,20.287-26.942,23.034V169.832C273.798,172.58,283.16,180.508,290.778,192.866z M221.222,192.866 c7.618-12.358,16.981-20.287,26.942-23.034v172.322c-9.961-2.747-19.323-10.675-26.942-23.034 c-10.319-16.741-16.003-39.161-16.003-63.128S210.902,209.608,221.222,192.866z"/> </g>
</svg>