<!DOCTYPE svg PUBLIC "-//W3C//DTD SVG 1.1//EN" "http://www.w3.org/Graphics/SVG/1.1/DTD/svg11.dtd">
<!-- Uploaded to: SVG Repo, www.svgrepo.com, Transformed by: SVG Repo Mixer Tools -->
<svg version="1.1" id="Layer_1" xmlns="http://www.w3.org/2000/svg" xmlns:xlink="http://www.w3.org/1999/xlink" viewBox="0 0 512 512" xml:space="preserve" width="150px" height="150px" fill="#000000">
<g id="SVGRepo_bgCarrier" stroke-width="0"/>
<g id="SVGRepo_tracerCarrier" stroke-linecap="round" stroke-linejoin="round"/>
<g id="SVGRepo_iconCarrier"> <polyline style="fill:#FFFFFF;" points="123.436,504.131 145.836,315.252 366.164,315.252 388.564,504.131 "/> <polygon style="fill:#E6E6E6;" points="366.164,315.252 388.564,504.131 256,504.131 256,315.252 "/> <polygon style="fill:#A5001E;" points="388.564,504.131 123.436,504.131 131.788,433.752 256,369.836 380.212,433.752 "/> <polygon style="fill:#830018;" points="388.564,504.131 256,504.131 256,369.836 380.212,433.752 "/> <polyline style="fill:#A5001E;" points="213.639,115.908 213.639,85.01 298.361,85.01 298.361,115.908 "/> <rect x="256" y="85.015" style="fill:#830018;" width="42.355" height="30.898"/> <path style="fill:#FFE477;" d="M364.144,115.908c0,59.727-48.418,108.144-108.144,108.144s-108.144-48.418-108.144-108.144"/> <path style="fill:#FFD442;" d="M364.144,115.908c0,59.724-48.421,108.144-108.144,108.144V115.908H364.144z"/> <polygon style="fill:#A5001E;" points="204.394,245.482 307.606,245.482 332.559,278.374 179.441,278.374 "/> <polygon style="fill:#830018;" points="332.559,278.374 256,278.374 256,245.482 307.61,245.482 "/> <path style="fill:#C0AB91;" d="M416.472,315.252H95.528l0,0c0-20.368,16.511-36.879,36.879-36.879h247.187 C399.961,278.374,416.472,294.885,416.472,315.252L416.472,315.252z"/> <path style="fill:#957856;" d="M416.472,315.252H256v-36.879h123.593C399.956,278.374,416.472,294.889,416.472,315.252z"/> <path d="M256,216.184c-47.31,0-88.603-33.566-98.188-79.813l-15.41,3.194c11.09,53.516,58.864,92.357,113.598,92.357 c61.326,0,111.681-47.83,115.74-108.144h13.833v-15.738h-79.344V77.141h-42.361V61.403h129.574V15.738h20.984V0h-58.754v15.738 h22.033v29.928H248.131v31.475H205.77v30.898h-79.344v15.738h229.542C351.941,175.405,308.644,216.184,256,216.184z M221.508,92.879 h68.984v15.161h-68.984V92.879z"/> <path d="M424.341,323.121v-7.869c0-24.674-20.074-44.748-44.748-44.748h-43.127l-24.952-32.892h-111.03l-24.952,32.892h-43.128 c-24.675,0-44.748,20.074-44.748,44.748v7.869h49.32l-20.534,173.141h-14.937V512h308.984v-15.738h-14.937l-20.533-173.141H424.341z M208.301,253.351h95.398l13.013,17.154H195.288L208.301,253.351z M132.407,286.243h247.187c13.27,0,24.488,8.956,27.926,21.141 H104.481C107.919,295.198,119.137,286.243,132.407,286.243z M132.294,496.262l6.81-57.426L256,378.686l116.895,60.152l6.81,57.425 H132.294z M370.661,419.988L256,360.986l-114.661,59.001l11.487-96.866h206.345L370.661,419.988z"/> </g>
</svg>